<?xml version="1.0" encoding="utf-8"?>
<svg xmlns="http://www.w3.org/2000/svg" xmlns:xlink="http://www.w3.org/1999/xlink" version= "1.1" width="1012px" height="1013px" viewBox="-146 207 1012 1013">
<g id="layer1">
<g style="fill:rgb(138,206,241); fill-opacity:0.99607843; stroke-linejoin: miter">
<path d="M-146.001,206.12263C-146.23343,206.12263,-146.45633,206.21497,-146.62068,206.37932C-146.78503,206.54367,-146.87737,206.76657,-146.87737,206.999L-146.87636,1220.0C-146.87636,1220.484,-146.484,1220.8763,-146.0,1220.8763L866.001,1220.8773C866.2334,1220.8773,866.4563,1220.7849,866.62067,1220.6206C866.78503,1220.4563,866.8773,1220.2334,866.8773,1220.001L866.87634,207.0C866.87634,206.516,866.484,206.12364,866.0,206.12364L-146.001,206.12263 Z"/>
</g>
<g style="fill:rgb(0,0,0); fill-opacity:0.99607843; stroke-linejoin: miter">
<path d="M181.3366,1107.6903L181.33693,1107.6935L181.3366,1107.692L181.3366,1107.6903 Z"/>
</g>
<g style="fill:rgb(255,255,255); fill-opacity:1.0; stroke-linejoin: miter">
<path d="M111.673805,1066.928L111.673805,1066.9299L111.673805,1066.9287L111.673805,1066.928 Z"/>
</g>
<g style="fill:rgb(0,0,0); fill-opacity:0.99607843; stroke-linejoin: miter">
<path d="M275.8129,725.6873L274.26697,735.4768Q268.97067,765.5169,269.60825,789.52136Q271.84253,814.4872,282.5263,820.5183Q296.37024,836.0465,380.8099,816.1195L397.104,1010.2732L447.52975,1001.9487Q452.18112,894.9584,450.40417,855.0279Q448.05356,803.99567,437.8125,791.4276Q429.00125,778.88135,414.73886,775.8762Q399.7921,771.5055,351.4546,770.45703L349.96875,716.96265L275.8129,725.6873"/>
</g>
<g style="fill:rgb(0,0,0); fill-opacity:0.99607843; stroke-linejoin: miter">
<path d="M732.8919,1027.9128L732.70776,1040.255Q728.7694,1077.7307,701.39374,1101.5074Q673.8191,1125.2765,634.6542,1123.1049Q597.1784,1119.166,573.4015,1091.7898Q565.7792,1082.9373,560.5875,1072.2998L556.11755,1061.3179Q552.3122,1049.9402,551.6198,1037.3921Q550.57745,998.8262,574.81476,971.91425Q599.05176,945.0013,637.5158,942.01556Q676.081,940.9738,702.9933,965.2109Q729.9057,989.4485,732.8919,1027.9128"/>
</g>
<g style="fill:rgb(0,0,0); fill-opacity:1.0; stroke-linejoin: miter">
<path d="M88.73463,920.3571L54.62627,922.1419L26.058966,941.50525L65.51924,940.29456 Z"/>
</g>
<g style="fill:rgb(0,0,0); fill-opacity:1.0; stroke-linejoin: miter">
<path d="M330.47534,829.45825L353.47272,827.33124L354.90298,854.6794L294.54828,855.3708C306.91077,850.06134,319.4316,841.5023,330.47534,829.45825 Z"/>
</g>
<g style="fill:rgb(179,179,179); fill-opacity:1.0; stroke-linejoin: miter">
<path d="M213.76892,858.9867L213.76892,858.9874L213.12415,852.5499L213.3786,852.7689L127.93855,856.9286L128.17004,856.67236L128.48346,862.6644L128.22942,862.4336L214.00066,858.719L213.76892,858.9867 M214.25395,858.938C214.26057,859.0045,214.23941,859.0708,214.1956,859.1216C214.15164,859.172,214.0888,859.2025,214.02197,859.2057L214.02197,859.2064L128.25063,862.9208C128.11703,862.92615,128.00366,862.8235,127.99659,862.6897L127.99659,862.6908L127.683334,856.698C127.67986,856.6333,127.70254,856.5697,127.745926,856.5217C127.78935,856.474,127.850105,856.4448,127.9149,856.4418L127.9149,856.4429L213.35481,852.2821C213.4844,852.2755,213.59602,852.37244,213.60925,852.501L213.60925,852.5023L214.25395,858.938 Z"/>
</g>
<g style="fill:rgb(0,0,0); fill-opacity:1.0; stroke-linejoin: miter">
<path d="M627.92194,902.25024C637.2992,899.0836,694.557,895.386,693.62726,897.8125C704.0677,903.6802,705.3444,912.412,702.9835,920.5866C683.73395,909.31555,670.04205,900.2379,627.9225,902.25024 Z"/>
</g>
<g style="fill:rgb(255,199,0); fill-opacity:1.0; stroke-linejoin: miter">
<path d="M531.72217,1023.422C585.0797,1024.7571,596.4704,987.89716,634.5679,973.5966C670.60986,960.9593,698.74164,965.22675,729.85565,953.79803C724.2644,941.8842,686.8126,880.74744,608.9996,907.26917C556.6602,927.7085,547.19556,974.9473,531.7236,1023.422 Z"/>
</g>
<g style="fill:rgb(0,0,0); fill-opacity:1.0; stroke-linejoin: miter">
<path d="M563.95905,916.6123L552.43805,961.4295C568.3563,931.8956,584.1702,918.0824,599.6513,911.4917C594.72644,910.0043,588.0604,909.13916,586.83844,906.3259L603.1826,904.1561C598.2409,898.4236,596.8767,878.47974,600.70953,871.0913L578.9907,868.2219C570.4059,842.2772,557.51,822.47296,543.0704,799.19794C555.5661,835.8189,568.6988,872.2069,563.95807,916.6123 Z"/>
</g>
<g style="fill:rgb(0,0,0); fill-opacity:1.0; stroke-linejoin: miter">
<path d="M610.7659,886.59033C611.24475,895.7544,609.1569,903.31287,606.1026,903.47253C603.0477,903.6322,600.18286,896.3331,599.7038,887.16907 Z"/>
</g>
<g style="fill:rgb(0,0,0); fill-opacity:1.0; stroke-linejoin: miter">
<path d="M496.92838,1029.085C533.26166,1017.08826,552.8287,966.6435,563.1982,923.4557C573.217,851.5227,538.3978,787.43024,524.6055,760.19916C505.99796,773.51495,526.43384,802.5336,536.98553,837.56976C560.2919,914.9617,546.5821,957.2133,496.92838,1029.085 Z"/>
</g>
<g style="fill:rgb(255,199,0); fill-opacity:1.0; stroke-linejoin: miter">
<path d="M521.197,763.38385C506.62582,743.4906,532.3926,739.4676,545.2015,746.4269L552.5118,744.8118C550.5864,727.35236,548.17346,706.39636,552.9513,688.40393C536.16034,692.02325,525.9323,699.7639,516.84705,710.93555L484.741,724.47766C481.3102,738.13434,489.04648,745.9234,491.19904,756.64667C513.22534,786.2203,519.3783,831.9975,537.99536,873.7505C551.3785,941.8121,503.19177,981.33746,491.31647,988.65607C458.965,1008.50256,416.99005,1015.0316,360.86658,1004.1052C372.5626,1018.9354,354.81076,1023.8894,348.42847,1032.4412C397.4267,1033.4526,449.40982,1031.3333,497.3977,1028.3932C530.5572,984.7701,579.50867,902.46106,528.5407,808.867C517.7232,789.002,514.1662,777.8056,521.19574,763.3865 Z"/>
</g>
<g style="fill:rgb(255,199,0); fill-opacity:1.0; stroke-linejoin: miter">
<path d="M520.9515,763.56396L520.9515,763.5651C514.74,755.08405,515.7099,749.2915,520.14716,746.04114L520.14716,746.0423C526.05273,741.71545,537.8898,742.10736,545.34674,746.15906L545.1358,746.12964L552.4459,744.515L552.2091,744.84564L552.1248,744.08167L552.1248,744.082L552.0386,743.2995L552.0386,743.30066C550.1495,726.1694,548.00214,705.855,552.65674,688.3256L553.01556,688.70197C536.3039,692.3043,526.13293,699.99994,517.08325,711.12823L516.96545,711.2161L484.8594,724.7583L485.0367,724.5517C482.77576,733.5506,485.41187,739.9638,488.08728,746.4591L488.08728,746.46027C489.42355,749.7038,490.77365,752.9787,491.49808,756.5867L491.44382,756.4646C504.7944,774.39056,512.32227,798.24097,520.2911,823.4775L520.2911,823.47833C525.5098,840.0036,530.9176,857.1292,538.2739,873.62646L538.29443,873.692C551.71375,941.93805,503.39563,981.5693,491.4763,988.9152L491.47556,988.9152C459.0413,1008.81335,416.9827,1015.34045,360.80823,1004.4043L361.1059,1003.9165C369.77884,1014.9137,362.51236,1020.6758,355.6183,1026.1572L355.6183,1026.1578C352.98257,1028.2528,350.40027,1030.3085,348.67267,1032.623L348.43466,1032.1366C397.42163,1033.1472,449.39413,1031.0289,497.3789,1028.0889L497.15512,1028.2086C530.30334,984.60065,579.1477,902.4346,528.27325,809.01263L528.27325,809.01337C517.45087,789.13934,513.8215,777.8178,520.9218,763.2525L520.9302,763.23645L520.9316,763.2342L520.9515,763.56396 M521.443,763.2036C521.5137,763.30054,521.52124,763.42883,521.46277,763.5334L521.46277,763.53455L521.46136,763.5362L521.4697,763.51984C514.5111,777.7929,517.9955,788.8652,528.8083,808.72125L528.8083,808.72235C579.86993,902.4873,530.81146,984.93915,497.64014,1028.5771C497.58646,1028.6478,497.50467,1028.6915,497.41617,1028.697L497.41617,1028.6986C449.42477,1031.6378,397.43274,1033.7568,348.42224,1032.7455C348.30792,1032.7435,348.20465,1032.6774,348.15463,1032.5746C348.10446,1032.4723,348.1159,1032.3502,348.1843,1032.2592L348.1843,1032.2598C349.9687,1029.8682,352.62003,1027.7625,355.23923,1025.6805L355.23923,1025.6812C362.188,1020.1553,368.90976,1014.7953,360.6274,1004.29407C360.5487,1004.1935,360.54022,1004.0553,360.60648,1003.9463C360.67276,1003.83826,360.79965,1003.782,360.92465,1003.8064L360.92465,1003.8075C416.99698,1014.72266,458.88898,1008.192,491.15695,988.39594L491.1564,988.3964C502.98807,981.1053,551.0432,941.6861,537.6966,873.8093L537.71716,873.8745C530.34515,857.3409,524.9272,840.18134,519.71027,823.66046L519.71027,823.6619C511.7326,798.3977,504.23224,774.65594,490.95486,756.82855L490.9006,756.7065C490.18982,753.1655,488.86353,749.94366,487.5239,746.69116L487.5239,746.6923C484.84756,740.1936,482.13187,733.61334,484.44547,724.4037C484.4689,724.31067,484.5346,724.2339,484.62262,724.1971L484.62262,724.19794L516.7288,710.6553L516.61084,710.74335C525.73157,699.5283,536.0171,691.7427,552.8869,688.10614C552.9907,688.0841,553.0985,688.1171,553.1716,688.1937C553.2449,688.27057,553.2727,688.3799,553.2457,688.4822L553.2457,688.48303C548.6252,705.8821,550.7523,726.08,552.64417,743.23254L552.64417,743.234L552.73035,744.01495L552.73035,744.0161L552.8148,744.77844C552.8317,744.9332,552.7296,745.07574,552.57745,745.10956L552.57745,745.1102L545.2669,746.7241C545.1956,746.7405,545.1204,746.72955,545.05597,746.6947L545.05597,746.69586C537.7335,742.7158,526.1642,742.38904,520.50714,746.53253L520.50714,746.5337C516.4654,749.4932,515.3252,754.8515,521.443,763.2036 Z"/>
</g>
<g style="fill:rgb(128,128,128); fill-opacity:1.0; stroke-linejoin: miter">
<path d="M517.339,711.0104L517.339,711.01154C511.34665,715.6728,509.40613,719.17145,508.39597,723.33246L507.80374,723.18866C508.8519,718.8711,510.8845,715.26086,516.965,710.5294 Z"/>
</g>
<g style="fill:rgb(0,0,0); fill-opacity:1.0; stroke-linejoin: miter">
<path d="M349.71594,1032.4276C358.31055,1023.91626,371.5739,1017.05457,361.28973,1004.20056C259.20227,987.4266,330.0736,882.2492,363.13025,864.7209C374.119,856.25214,360.90738,850.9106,354.91092,851.9012C63.90652,848.6095,20.04453,985.5749,15.53102,1040.6584C16.502626,1044.6884,20.640638,1045.117,24.435305,1045.5034C90.10139,1041.0199,260.68723,1031.8481,349.72314,1032.4253 Z"/>
</g>
<g style="fill:rgb(0,0,0); fill-opacity:1.0; stroke-linejoin: miter">
<path d="M600.4573,1055.485L600.4573,1055.4861C601.3437,1055.2612,602.2329,1054.938,603.1726,1054.5967L603.1726,1054.5978C604.17566,1054.2319,605.23486,1053.8467,606.3711,1053.56L606.3711,1053.5607C609.3692,1052.8031,612.9021,1052.7285,617.65906,1055.3136C617.7491,1055.3624,617.8084,1055.4531,617.81757,1055.555C617.82623,1055.6571,617.783,1055.7566,617.703,1055.8198L617.703,1055.821C610.62366,1061.4283,596.21497,1081.2339,612.0925,1103.1503C612.1318,1103.204,612.15186,1103.2692,612.1505,1103.3358L612.1505,1103.3367C611.97864,1111.4678,607.4542,1111.796,603.14545,1112.093L603.14545,1112.0941C602.3116,1112.1504,601.4923,1112.2069,600.702,1112.3177C600.6191,1112.329,600.53516,1112.3062,600.4695,1112.2542C600.40405,1112.2018,600.3629,1112.1252,600.35614,1112.0414L600.35614,1112.0427C600.1003,1108.9851,599.80347,1105.8778,599.5124,1102.8331L599.5124,1102.834C599.22095,1099.7869,598.92993,1096.7421,598.676,1093.7109L598.676,1093.7115C597.6007,1080.8563,597.18933,1068.1356,600.2363,1055.7069L600.76654,1055.9745L600.7664,1055.9747L600.4573,1055.485 M600.6063,1056.0756C600.47864,1056.1078,600.3447,1056.0538,600.2742,1055.9423C600.20386,1055.8307,600.21313,1055.6868,600.2976,1055.5853L600.2976,1055.5864L600.2982,1055.5848C600.3885,1055.4757,600.5429,1055.4438,600.6695,1055.5074C600.7964,1055.5713,600.86206,1055.7145,600.8282,1055.8524L600.8282,1055.8535C597.8059,1068.1802,598.2088,1080.8176,599.28314,1093.6602L599.28314,1093.6613C599.537,1096.6906,599.8271,1099.7247,600.11896,1102.7753L600.11896,1102.7761C600.40985,1105.8156,600.7075,1108.934,600.9631,1111.9907L600.6174,1111.7144C601.4328,1111.5996,602.27386,1111.5422,603.1032,1111.4852L603.1032,1111.4861C607.36145,1111.1919,611.3806,1110.9318,611.5415,1103.3226L611.5992,1103.5079C595.4373,1081.1989,610.13495,1061.038,617.3245,1055.3427L617.36835,1055.8489C612.755,1053.3422,609.38025,1053.4287,606.5202,1054.1505L606.5202,1054.1516C605.4182,1054.4288,604.3879,1054.8032,603.38055,1055.1691L603.38055,1055.1703C602.4471,1055.5085,601.5275,1055.843,600.6063,1056.0756 Z"/>
</g>
<g style="fill:rgb(255,199,0); fill-opacity:1.0; stroke-linejoin: miter">
<path d="M161.28348,905.4727C240.65938,880.8001,279.57507,912.05835,285.3178,943.9719C294.88907,981.3227,286.29214,1008.37427,275.85822,1033.0691C195.13664,1035.5786,111.53962,1040.1312,26.867428,1045.3018C56.76591,944.06714,118.53279,920.12494,161.29337,905.4765 Z"/>
</g>
<g style="fill:rgb(0,0,0); fill-opacity:1.0; stroke-linejoin: miter">
<path d="M142.18306,917.25665C141.62769,923.49115,141.3195,949.2733,147.53943,954.8756C170.89185,948.5487,193.8396,947.8091,216.23943,954.6719C225.16005,941.1061,226.98805,926.7357,216.10864,910.9261C190.95905,902.4848,164.63982,903.65643,142.1825,917.25714 Z"/>
</g>
<g style="fill:rgb(0,0,0); fill-opacity:1.0; stroke-linejoin: miter">
<path d="M231.8212,1034.5789L242.0412,988.44183C245.52586,975.9229,238.9891,969.3846,229.82213,966.89606C173.0287,955.91565,134.67372,961.41797,93.03436,973.12494"/>
</g>
<g style="fill:rgb(0,0,0); fill-opacity:1.0; stroke-linejoin: miter">
<path d="M354.79016,852.52716C277.92874,859.3216,342.22583,868.9273,124.149055,872.9076L123.31153,862.78345C202.25638,859.5676,280.72964,856.2974,354.7873,852.52765 Z"/>
</g>
<g style="fill:rgb(0,0,0); fill-opacity:1.0; stroke-linejoin: miter">
<path d="M124.13251,872.5934C121.537125,883.08325,113.88847,892.957,106.284256,902.6966C126.7334,891.8575,148.5551,880.5491,182.61176,871.3838 Z"/>
</g>
<g style="fill:rgb(0,0,0); fill-opacity:1.0; stroke-linejoin: miter">
<path d="M211.27528,852.8341L213.17007,848.83813L212.02953,816.6106C211.79158,814.9293,210.98561,814.0434,208.8815,813.91473L127.32766,816.6984C125.18778,817.66974,125.159874,818.7945,125.313446,819.9316L128.42542,854.5028L130.68216,856.4138 Z"/>
</g>
<g style="fill:rgb(255,199,0); fill-opacity:1.0; stroke-linejoin: miter">
<path d="M326.61792,838.286C326.13788,827.9846,326.45377,819.22327,317.97586,808.5419C341.28955,808.806,352.6731,805.9607,369.56836,799.37305C376.9491,798.46875,387.751,828.81134,377.6103,835.3112 Z"/>
</g>
<g style="fill:rgb(255,199,0); fill-opacity:1.0; stroke-linejoin: miter">
<path d="M318.43616,808.5167C298.97855,808.8247,274.32397,799.27893,252.04724,791.0353C268.85648,805.2954,271.2544,816.91956,274.20828,825.92725C291.81888,840.33997,309.0552,843.52014,326.76443,838.1218C326.23267,826.7699,325.3457,816.25183,318.43753,808.5167 Z"/>
</g>
<g style="fill:rgb(0,0,0); fill-opacity:1.0; stroke-linejoin: miter">
<path d="M253.32878,791.8872C246.20581,782.50836,229.94513,778.5992,221.27536,791.715C229.1915,809.08624,257.66638,829.89307,274.24374,826.53613C283.26962,819.31104,246.58772,785.8173,253.32878,791.88794 Z"/>
</g>
<g style="fill:rgb(77,77,77); fill-opacity:1.0; stroke-linejoin: miter">
<path d="M460.33954,742.3965L487.14297,734.98627C494.29898,735.7141,497.11795,744.61346,489.1191,749.21045L463.60156,756.1685 Z"/>
</g>
<g style="fill:rgb(0,0,0); fill-opacity:1.0; stroke-linejoin: miter">
<path d="M460.33954,742.3965L460.33954,742.39764L487.14297,734.98627L487.14297,734.98737C491.53836,735.43304,494.29724,738.9627,493.91876,742.68494L493.91876,742.6861C493.68088,745.02264,492.20496,747.4368,489.1191,749.21045L489.1191,749.21155L463.60156,756.1685L463.60156,756.1696L460.33954,742.3965L460.33954,742.39764 M460.33954,742.3965L460.33954,742.39764L463.60156,756.1685L463.60156,756.1696L489.1191,749.21045L489.1191,749.21155C492.20496,747.4368,493.68088,745.02264,493.91876,742.68494L493.91876,742.6861C494.29724,738.9627,491.53836,735.43304,487.14297,734.98627L487.14297,734.98737L460.33954,742.3965 Z"/>
</g>
<g style="fill:rgb(0,0,0); fill-opacity:1.0; stroke-linejoin: miter">
<path d="M495.42566,734.39856L498.25494,738.41034L486.10287,756.45416C481.52805,758.0687,482.05875,759.82434,484.87216,762.37305C489.58786,762.6959,487.70993,760.17126,488.0109,757.587L506.4625,736.2853C502.23416,728.5933,498.8711,734.1025,495.42526,734.39746 Z"/>
</g>
<g style="fill:rgb(0,0,0); fill-opacity:1.0; stroke-linejoin: miter">
<path d="M490.7328,735.8775L502.68546,731.7089C506.81613,733.7696,507.7281,739.23285,504.86548,740.99274L492.8551,747.01294C495.127,743.82117,495.8427,741.1083,490.73206,735.8775 Z"/>
</g>
<g style="fill:rgb(0,0,0); fill-opacity:1.0; stroke-linejoin: miter">
<path d="M490.7328,735.8775L490.7328,735.87885L502.68546,731.7089L502.68546,731.7101C506.03287,733.37933,507.26666,737.28326,506.09064,739.6401L506.09064,739.6417C505.81543,740.19196,505.40826,740.6587,504.86548,740.99274L504.86548,740.9935L492.8551,747.01294L492.8551,747.0141C495.127,743.82117,495.8427,741.1083,490.73206,735.8775L490.73206,735.87885L490.7328,735.8775L490.7328,735.87885 M490.7328,735.8775L490.7328,735.87885L490.73206,735.8775L490.73206,735.87885C495.8427,741.1083,495.127,743.82117,492.8551,747.01294L492.8551,747.0141L504.86548,740.99274L504.86548,740.9935C505.40826,740.6587,505.81543,740.19196,506.09064,739.6401L506.09064,739.6417C507.26666,737.28326,506.03287,733.37933,502.68546,731.7089L502.68546,731.7101L490.7328,735.8775 Z"/>
</g>
<g style="fill:rgb(0,0,0); fill-opacity:1.0; stroke-linejoin: miter">
<path d="M462.97076,743.6465L462.97076,743.64764C463.24146,748.8197,461.33813,754.0803,457.79962,754.2655L457.79962,754.2666C454.2608,754.4508,451.8192,749.417,451.5485,744.24365C451.5256,743.805,451.86282,743.4301,452.30194,743.4077L452.30194,743.40857L462.1348,742.89294C462.5735,742.87006,462.94788,743.2074,462.97076,743.6465L462.97076,743.64764 M461.38174,743.7294L462.2179,744.48236L452.38504,744.9968L453.1379,744.16077C453.41776,749.50916,455.8248,752.77527,457.71652,752.6761L457.71652,752.6772C459.60825,752.5772,461.66138,749.0779,461.38174,743.7294 Z"/>
</g>
<g style="fill:rgb(0,0,0); fill-opacity:0.99607843; stroke-linejoin: miter">
<path d="M501.45685,731.61743L501.45685,731.6182L501.45685,731.61743L501.45685,731.6182"/>
</g>
<g style="fill:rgb(83,150,190); fill-opacity:0.99607843; stroke-linejoin: miter">
<path d="M354.27527,505.52692L354.27527,505.52722L354.27527,505.5277L354.27527,505.52722L354.27527,505.52692L354.27527,505.52722L354.27527,505.5277Q354.27527,505.52722,354.27527,505.52692"/>
</g>
<g style="fill:rgb(255,200,166); fill-opacity:0.99607843; stroke-linejoin: miter">
<path d="M452.1897,697.25555L452.1897,697.25635L452.1897,697.25604L452.1897,697.25555"/>
</g>
<g style="fill:rgb(254,186,155); fill-opacity:1.0; stroke-linejoin: miter">
<path d="M451.06464,713.76294L486.4269,709.04L499.80542,720.01404L450.212,726.8503L427.83047,716.7612L451.06464,713.76294 Z"/>
</g>
<g style="fill:rgb(255,0,37); fill-opacity:1.0; stroke-linejoin: miter">
<path d="M328.30215,641.3315L356.8941,651.07214L447.63486,741.2349L470.94705,714.1074C426.01712,659.00006,397.0435,625.10114,384.13257,612.3028C373.12582,601.3928,366.9026,595.8606,365.80695,595.04596C358.7536,589.80096,353.26657,586.35236,348.91556,585.0175C343.1649,583.25287,337.3372,584.13226,331.30972,588.03925L328.30215,641.3315 Z"/>
</g>
<g style="fill:rgb(254,186,155); fill-opacity:0.99607843; stroke-linejoin: miter">
<path d="M499.70795,719.864L491.57147,726.9057L483.43466,733.9467Q468.03708,734.19794,452.63916,734.4494Q457.21814,729.5428,461.7975,724.6351L499.70795,719.864"/>
</g>
<g style="fill:rgb(0,0,0); fill-opacity:0.99607843; stroke-linejoin: miter">
<path d="M398.20703,633.8238L398.20703,633.82465L398.20703,633.82574L398.20703,633.8238"/>
</g>
<g style="fill:rgb(0,0,0); fill-opacity:1.0; stroke-linejoin: miter">
<path d="M325.34274,564.6685L325.3268,564.5038Q325.29715,546.3077,324.84702,543.40326Q324.56607,540.12396,323.99362,537.5238Q321.5394,528.20825,321.1762,524.91455Q320.3435,518.03864,320.47858,513.95337Q320.77002,505.07806,321.86707,501.4367Q322.44336,499.02106,323.32123,496.8471L324.2859,494.76434Q325.33987,492.7688,326.71243,491.13092Q329.4846,487.8617,333.19278,485.94138Q335.85504,484.15585,343.1803,483.07407Q348.1827,482.60443,353.9683,483.79004Q360.50195,485.1186,370.82172,489.13098Q374.5252,489.81244,376.30588,489.83844Q380.80634,490.81305,384.19565,483.95416Q387.3109,490.498,387.36966,493.80817Q388.0816,499.0822,382.5448,511.28033L359.72778,542.6727L325.34274,564.6685 Z"/>
</g>
<g style="fill:rgb(255,186,155); fill-opacity:0.99607843; stroke-linejoin: miter">
<path d="M321.83603,571.8606L321.8366,571.86176L325.00415,558.80536L325.2255,553.7549Q330.78632,554.0235,334.09622,551.86664Q337.10974,549.71765,338.97165,545.24274Q340.37488,541.35956,340.4128,539.54584Q340.5233,538.3766,340.51535,537.215Q340.18066,529.8,340.4262,529.4202Q340.4813,527.5322,341.93213,525.04956Q346.13867,519.96045,349.47937,521.861Q350.4271,522.21643,351.70007,524.4015Q352.24872,525.0624,354.5865,531.84216Q355.2512,533.4567,355.7283,533.0413Q356.4065,532.0422,356.66714,530.7574Q358.7707,521.4657,359.74,518.1733Q361.64203,512.17303,362.2542,511.25836Q364.63776,505.3723,371.2985,502.19257Q381.60626,498.80212,386.17596,503.39862Q389.37784,515.36926,389.23425,519.08325Q389.40244,523.20276,386.25,526.8983Q393.50644,540.0544,393.20023,542.891Q393.5961,546.3934,386.5216,545.9155Q387.26843,551.1314,386.72098,552.45996Q386.3385,554.01654,383.7321,554.57416Q385.54453,555.0479,384.91898,557.27203Q384.27893,559.2149,381.67914,563.63043Q381.7047,569.05334,380.6718,571.4269Q379.46072,573.6199,378.28558,573.8869Q376.482,574.9821,369.34045,574.5286L361.52182,571.1088L356.08542,576.60236L321.83603,571.8606 Z"/>
</g>
<g style="fill:rgb(0,0,0); fill-opacity:0.99607843; stroke-linejoin: miter">
<path d="M383.98398,573.70123L383.98456,573.70044L383.98425,573.70123L383.98456,573.70044 Z"/>
</g>
<g style="fill:rgb(0,0,0); fill-opacity:0.99607843; stroke-linejoin: miter">
<path d="M374.6825,522.42065L375.0922,522.28845Q377.7822,521.3687,379.416,521.4452Q379.77777,521.46674,380.12537,521.53345Q380.30618,521.5447,381.14044,521.81793Q381.96808,522.11176,383.37552,522.90045Q380.94565,522.50055,379.4743,522.4319Q378.048,522.3404,374.6825,522.42065 Z"/>
</g>
<g style="fill:rgb(0,0,0); fill-opacity:0.99607843; stroke-linejoin: miter">
<path d="M375.1031,529.4287L375.10196,529.4295L375.10196,529.43066L375.1031,529.4287 Z"/>
</g>
<g style="fill:rgb(255,255,255); fill-opacity:0.99607843; stroke-linejoin: miter">
<path d="M375.89838,525.57855L375.89798,525.5797L380.77536,524.2325Q381.1707,525.14453,381.13367,525.6944Q381.13907,526.2265,380.67944,527.4796L375.89838,525.57855 Z"/>
</g>
<g style="fill:rgb(0,0,0); fill-opacity:0.99607843; stroke-linejoin: miter">
<path d="M380.75037,524.1985L379.3613,525.6529L380.5808,527.39233Q380.95905,526.7563,381.09836,526.4115Q381.22723,526.0665,381.231,526.0007Q381.26114,525.8645,381.26913,525.7313Q381.27536,525.5983,381.25925,525.4681Q381.2625,525.4014,381.16873,525.08093Q381.06543,524.76044,380.75037,524.1985 Z"/>
</g>
<g style="fill:rgb(0,0,0); fill-opacity:0.99607843; stroke-linejoin: miter">
<path d="M395.37686,655.6685L395.37686,655.6691L395.37686,655.6697L395.37686,655.6685"/>
</g>
<g style="fill:rgb(254,186,155); fill-opacity:1.0; stroke-linejoin: miter">
<path d="M448.79892,723.92303L484.16104,719.1991L497.5397,730.17377L447.94608,737.00854L425.56433,726.92017L448.79892,723.92303 Z"/>
</g>
<g style="fill:rgb(255,0,37); fill-opacity:1.0; stroke-linejoin: miter">
<path d="M326.0362,651.48975L354.6284,661.2316L445.3693,751.39355L468.6811,724.26654C423.75137,669.159,394.7776,635.25946,381.86685,622.46173C370.86005,611.5514,364.6368,606.0195,363.54132,605.20483C356.48764,599.95917,351.00085,596.5113,346.65,595.1765C340.899,593.4115,335.07162,594.2912,329.0436,598.1985L326.0362,651.48975 Z"/>
</g>
<g style="fill:rgb(254,186,155); fill-opacity:0.99607843; stroke-linejoin: miter">
<path d="M497.44208,730.02374L489.30557,737.06476L481.16934,744.1065Q465.77136,744.3572,450.3732,744.6084Q454.952,739.7022,459.53128,734.7944L497.44208,730.02374"/>
</g>
<g style="fill:rgb(210,232,195); fill-opacity:1.0; stroke-linejoin: miter">
<path d="M359.21152,583.80365L359.21152,583.8048L356.5723,591.46704Q360.79007,594.03864,365.0078,596.61053L359.21152,583.80365"/>
</g>
<g style="fill:rgb(210,232,195); fill-opacity:1.0; stroke-linejoin: miter">
<path d="M361.74792,593.52435L361.74792,593.52515L362.90192,597.6631L367.44226,601.0049Q365.75055,597.76984,364.05884,594.5351L361.74792,593.52435"/>
</g>
<g style="fill:rgb(255,0,37); fill-opacity:1.0; stroke-linejoin: miter">
<path d="M322.19254,766.8737L322.19254,766.8741L320.02274,770.0814C308.45004,787.4446,299.63553,796.6985,293.8617,798.7223C287.16046,801.07104,279.16586,800.8258,269.55286,797.1201C269.21832,794.6006,268.91022,792.0731,268.58395,789.54114C266.79492,775.6633,266.67627,763.5047,267.9609,753.0212C268.2014,751.0566,268.67325,746.5166,270.3892,739.593C276.58725,714.5837,279.87515,701.73193,280.0242,700.90015C280.4496,698.5302,281.49887,693.8285,282.62076,686.6825C284.0623,677.4983,284.84927,659.8833,286.04233,633.8901C286.42987,625.4418,287.43588,620.5922,287.65305,619.18567C288.3398,614.73755,289.87424,609.3542,292.2718,602.9299C292.8436,601.3985,294.72006,597.58673,298.63315,591.829C302.50717,586.1291,309.16345,579.53217,318.31378,571.84L324.23428,559.5048L361.3261,573.75446L359.35858,584.89496C371.14993,608.1376,377.0749,625.4298,378.20667,636.68024C379.4493,649.03284,380.1074,661.6595,379.11115,674.68353C379.4411,675.00934,371.72284,692.2811,367.39905,733.2785C366.04138,746.15247,371.03784,758.5569,370.89255,763.7136C370.573,775.0779,371.27798,783.27954,373.0608,788.32153C363.58167,791.2239,356.0996,791.0111,350.23026,788.536C344.78122,786.2384,335.32214,779.30786,322.19254,766.8737L322.19254,766.8741 Z"/>
</g>
<g style="fill:rgb(0,0,0); fill-opacity:0.99607843; stroke-linejoin: miter">
<path d="M429.56064,996.01227L432.67694,996.08405Q446.73407,996.3973,453.02744,997.14215Q461.15897,998.06525,464.6894,999.73724Q466.3908,1000.5101,467.53433,1001.49243Q468.37866,1001.8816,469.96326,1004.8207Q471.30695,1007.8506,470.6006,1014.484L393.93103,1014.33923L399.76144,994.575L429.56064,996.01227"/>
</g>
<g style="fill:rgb(255,255,255); fill-opacity:1.0; stroke-linejoin: miter">
<path d="M89.92859,663.87775L160.52881,663.87866L231.12904,663.8791Q231.12894,741.71155,231.1289,819.5448Q160.52872,819.5453,89.928535,819.5456Q89.92856,741.71185,89.92859,663.87775"/>
</g>
<g style="fill:rgb(255,199,0); fill-opacity:1.0; stroke-linejoin: miter">
<path d="M83.27682,656.3039L160.79236,655.72766L238.30762,655.1509Q238.36938,663.45416,238.43121,671.7571Q160.91577,672.3339,83.400276,672.9108Q83.338425,664.60724,83.27682,656.3039"/>
</g>
<g style="fill:rgb(255,199,0); fill-opacity:1.0; stroke-linejoin: miter">
<path d="M83.84253,807.36005L238.87334,806.2072L238.9968,822.8131L83.965996,823.9671L83.84253,807.36005"/>
</g>
<g style="fill:rgb(255,199,0); fill-opacity:1.0; stroke-linejoin: miter">
<path d="M85.572075,847.8235L163.08743,847.24744L240.60262,846.6709Q240.66447,854.97424,240.7263,863.277Q163.21085,863.85376,85.69549,864.4303Q85.63368,856.1271,85.572075,847.8235"/>
</g>
<g style="fill:rgb(0,0,0); fill-opacity:0.99607843; stroke-linejoin: miter">
<path d="M253.17181,1028.5863L252.98772,1040.9286Q251.23708,1057.5846,244.85709,1071.5343Q235.8693,1088.38,232.68271,1090.9373Q227.7567,1096.8973,221.67328,1102.1812Q218.96706,1105.6228,202.00238,1115.1449Q195.01622,1118.5057,187.4576,1120.5853Q172.3405,1124.7441,154.93379,1123.7784Q134.70595,1120.5778,131.4724,1118.5483Q124.15924,1115.9374,117.52251,1112.1682Q104.24924,1104.631,93.68184,1092.464Q69.964745,1062.9316,71.98109,1029.6401Q72.76628,1013.0753,78.54494,998.81195Q81.4343,991.6806,85.57199,985.1247Q86.92895,981.4113,100.657364,966.90344Q123.60668,945.344,157.79684,942.6902Q174.9367,942.22656,189.7748,946.7572Q197.19402,949.0222,204.03775,952.53625Q207.81926,953.5126,223.27393,965.8852Q235.23471,976.6574,242.46965,990.23956Q246.08685,997.0307,248.52272,1004.5248Q250.47902,1007.8324,253.17181,1028.5863"/>
</g>
<g style="fill:rgb(255,0,37); fill-opacity:0.99607843; stroke-linejoin: miter">
<path d="M312.20953,518.83514L312.57782,514.4292Q314.06973,489.7771,322.9275,480.31577Q325.40637,477.57132,328.82358,475.56613Q330.90326,474.09683,337.35437,472.1649Q347.5306,469.75726,357.16254,470.6801Q378.45972,472.81976,386.59332,483.39264Q390.8022,489.09222,392.05905,496.42126Q393.7134,507.5418,392.8772,520.037L312.20953,518.83514"/>
</g>
<g style="fill:rgb(255,255,255); fill-opacity:0.99607843; stroke-linejoin: miter">
<path d="M363.87924,505.12427L363.87924,505.12427L363.8795,505.12457L363.87924,505.12427L363.87924,505.12427L363.87924,505.12427L363.8795,505.12457Q363.87924,505.12427,363.87924,505.12427"/>
</g>
<g style="fill:rgb(255,255,255); fill-opacity:0.24705882; stroke-linejoin: miter">
<path d="M42.593822,578.6383L231.33961,578.6414L231.33961,598.7694L42.593903,598.77246L42.593822,578.6383"/>
</g>
<g style="fill:rgb(255,255,255); fill-opacity:0.24705882; stroke-linejoin: miter">
<path d="M-2.8674378,612.5557L91.50542,612.5568L185.87837,612.5583Q185.87837,622.62256,185.87837,632.6869Q91.50542,632.6885,-2.8674388,632.69006Q-2.8674378,622.62286,-2.8674378,612.5557"/>
</g>
<g style="fill:rgb(255,255,255); fill-opacity:0.99607843; stroke-linejoin: miter">
<path d="M609.6107,886.5707L609.81775,888.64746Q610.2102,894.9533,608.72144,898.954Q607.2186,902.9534,604.4441,902.5877Q601.75604,901.92474,599.6074,897.3181Q597.45575,892.67816,596.9097,886.088Q596.51715,879.7821,598.0059,875.78143Q599.50867,871.78204,602.2833,872.1477Q604.9714,872.81067,607.12,877.4173Q607.8102,878.9069,608.36237,880.69696L608.8703,882.54486Q609.3388,884.4592,609.6107,886.5707"/>
</g>
<g style="fill:rgb(255,255,255); fill-opacity:0.99607843; stroke-linejoin: miter">
<path d="M391.08832,535.8584L365.45792,540.19165L355.3742,525.5124L354.7736,531.1941L364.70264,544.10425L364.45572,573.34045Q373.46317,575.9663,376.83795,574.92725Q381.94153,573.9057,386.0019,569.6158Q388.84625,566.7388,391.1092,563.0826Q393.69785,558.50946,393.90417,557.56445Q396.07855,551.9585,395.3379,547.3391L395.0716,545.8101Q394.7447,544.3026,394.2362,542.85944Q393.534,540.6733,391.08832,535.8584"/>
</g>
<g style="fill:rgb(0,0,0); fill-opacity:0.45882353; stroke-linejoin: miter">
<path d="M752.474,1117.913L749.029,1119.9076Q743.58624,1121.247,733.4843,1122.4672Q731.3452,1123.1517,692.69586,1125.8596Q658.5149,1127.9425,605.6978,1129.5486Q537.3834,1131.3691,521.2023,1131.4789Q461.72397,1132.4476,393.85153,1132.5684Q305.70764,1132.5602,290.25497,1132.2197Q224.5342,1131.6143,171.05484,1130.283Q106.88341,1128.4602,97.72153,1127.8778Q-61.891357,1120.4987,33.818268,1111.6208Q37.42963,1110.9916,85.839005,1108.4673Q129.60643,1106.462,185.21553,1105.1981Q268.17953,1103.3198,375.0893,1103.2147Q446.36252,1103.2848,506.9931,1104.143Q523.8137,1104.2344,591.9526,1105.8735Q618.277,1106.5981,641.9406,1107.5198Q689.268,1109.363,716.36035,1111.6208Q745.7993,1114.5338,745.61664,1115.2407Q751.5747,1116.525,752.47394,1117.913"/>
</g>
</g>
</svg>